<svg id="Layer_1" enable-background="new 0 0 100 100" viewBox="0 0 100 100" xmlns="http://www.w3.org/2000/svg"><g><g><path d="m33.2740326 54.7254486 1.7552071-3.4488258c6.9041634-13.5660782 26.4285278-13.1417007 32.7367058.7115593l.6121674 1.344368c2.6187744 5.7510223 6.5679092 10.796669 11.5213623 14.7203751l7.1594391 5.6710968c8.8898926 7.0418167 3.2718124 21.3377762-8.0338058 20.4430923l-25.3407936-2.0053864c-2.1392403-.1692963-4.288662-.1654816-6.4272881.0113983l-23.6734638 1.9579544c-11.1966772.9260406-16.9209538-13.1208115-8.2661943-20.2844925l7.8526888-6.4997864c4.1951521-3.472393 7.63393-7.7679328 10.1039751-12.6213531z"/></g><g><ellipse cx="36.231" cy="21.366" rx="11.244" ry="15.573"/></g><g><ellipse cx="66.337" cy="22.988" rx="11.244" ry="14.784"/></g><g><ellipse cx="13.744" cy="48.519" rx="11.244" ry="13.564"/></g><g><ellipse cx="87.54" cy="49.511" rx="9.96" ry="12.572"/></g></g></svg>