<svg id="_x3C_Layer_x3E_" enable-background="new 0 0 500 500" viewBox="0 0 500 500" xmlns="http://www.w3.org/2000/svg"><g fill="rgb(0,0,0)"><path d="m103.22 306.081c3.644-.953 7.267-1.903 10.868-2.852 3.619-1.078 7.214-2.154 10.784-3.228 3.603-.468 7.191-.932 10.768-1.39 3.546-1.082 7.067-2.162 10.564-3.239 3.379-2.478 6.698-4.97 9.955-7.473 3.287-2.109 6.526-4.224 9.716-6.345 3.443-.684 6.87-1.364 10.281-2.039 3.053-2.451 6.049-4.912 8.986-7.38 3.363-.887 6.705-1.77 10.028-2.647 2.807-2.588 5.555-5.185 8.242-7.791 2.8-2.235 5.551-4.475 8.254-6.717 2.581-2.613 5.104-5.233 7.567-7.86 2.933-1.321 5.84-2.639 8.72-3.95 2.57-1.106 5.122-2.207 7.653-3.303 2.43-1.36 4.836-2.717 7.218-4.07 1.796-3.127 3.522-6.266 5.179-9.417 2.432-1.038 4.847-2.07 7.243-3.097 2.073-1.92 4.109-3.839 6.11-5.755 2.35-.987 4.682-1.967 6.998-2.941 3.347 1.721 6.693 3.435 10.038 5.139 1.714-3.119 3.356-6.244 4.925-9.375 1.901-2.296 3.756-4.59 5.563-6.882 2.802-.109 5.597-.213 8.385-.309 2.528-.67 5.043-1.332 7.543-1.985 1.235-3.211 2.397-6.427 3.484-9.647 1.867-1.714 3.702-3.421 5.505-5.121 2.954.382 5.907.769 8.856 1.163.962-3.13 1.854-6.263 2.675-9.395 2.198-.805 4.38-1.602 6.546-2.389 1.375-1.797 2.717-3.588 4.028-5.371 2.796.495 5.591.994 8.384 1.498 1.961-.772 3.908-1.535 5.842-2.29.889-2.289 1.735-4.572 2.537-6.85 2.033-.536 4.056-1.064 6.068-1.583.212-2.992.36-5.982.446-8.969.209-2.799.36-5.594.455-8.384 1.609-.863 3.202-1.716 4.781-2.559.735-1.886 1.435-3.762 2.101-5.63 2.64.471 5.279.948 7.915 1.431-.259-3.004-.584-6.001-.973-8.992-2.39-.652-4.779-1.301-7.169-1.945-1.517.498-3.043 1.005-4.579 1.521-.932 1.318-1.886 2.645-2.862 3.98-1.71.755-3.435 1.522-5.175 2.3-1.662.886-3.341 1.784-5.037 2.693-1.27 1.506-2.568 3.025-3.894 4.553-1.256 1.623-2.542 3.257-3.858 4.901-1.84.871-3.696 1.752-5.569 2.645-.887 2.361-1.822 4.731-2.804 7.108-2.808-.427-5.619-.849-8.432-1.264-1.836 1.115-3.692 2.24-5.569 3.375-.632 3.085-1.332 6.172-2.1 9.262-1.576 1.752-3.186 3.514-4.829 5.283-2.791-.134-5.586-.261-8.386-.38-.953 2.991-1.972 5.983-3.055 8.974-2.518.494-5.046.995-7.586 1.506-1.127 3-2.32 6-3.578 8.997-2.135 1.386-4.295 2.779-6.482 4.18-2.237 1.316-4.498 2.64-6.785 3.97-1.097 3.582-2.278 7.154-3.542 10.714-3.382-.635-6.766-1.268-10.152-1.897-1.448 3.444-2.976 6.878-4.586 10.3-2.541 1.441-5.111 2.888-7.709 4.341-2.481 1.711-4.996 3.427-7.546 5.147-2.348 2.256-4.744 4.511-7.189 6.767-3.178.112-6.363.232-9.556.357-2.049 3.117-4.17 6.224-6.362 9.317-2.569 1.811-5.175 3.623-7.817 5.437-3.261-.93-6.522-1.861-9.783-2.794-2.32 3.257-4.718 6.499-7.195 9.724-3.071.137-6.15.279-9.235.425-2.967.884-5.95 1.772-8.951 2.665-2.88 1.578-5.792 3.158-8.735 4.737-2.563 3.207-5.204 6.394-7.921 9.559-3.158.961-6.334 1.925-9.531 2.893-2.917 2.411-5.887 4.812-8.912 7.202-3.559-.638-7.118-1.276-10.678-1.913-2.806 3.704-5.709 7.37-8.709 10.998-3.571-.007-7.149-.011-10.732-.01-3.159 2.726-6.384 5.434-9.673 8.122-5.594 3.787-11.335 7.541-17.223 11.255 6.508-2.334 12.925-4.672 19.248-7.011z"/><path d="m403.857 264.941c-2.445-.003-4.895-.001-7.349.004-1.824 1.388-3.673 2.779-5.547 4.172-1.922 1.228-3.867 2.46-5.832 3.694-2.02 1.103-4.06 2.208-6.119 3.318-1.771 1.694-3.573 3.388-5.407 5.081-2.096 1.101-4.212 2.204-6.348 3.31-1.852 1.718-3.736 3.435-5.651 5.149-2.797.036-5.6.076-8.408.119-1.827 1.995-3.694 3.984-5.599 5.967-1.928 1.995-3.897 3.982-5.904 5.964-2.619.417-5.248.838-7.887 1.263-2.517.65-5.047 1.303-7.589 1.96-2.074 2.253-4.195 4.495-6.364 6.725-2.762-.03-5.528-.057-8.299-.081-2.571.869-5.159 1.74-7.764 2.613-2.489 1.378-5.005 2.753-7.549 4.128-2.373 2.097-4.792 4.183-7.256 6.256-2.665 1.002-5.349 2.005-8.054 3.008-2.873.199-5.753.4-8.64.605-2.806.717-5.626 1.435-8.462 2.156-2.655 1.665-5.343 3.322-8.067 4.972-2.819 1.11-5.661 2.218-8.525 3.325-2.715 1.887-5.472 3.762-8.27 5.624-2.938 1.032-5.898 2.063-8.88 3.092-2.967 1.172-5.958 2.341-8.974 3.507-3.049 1.043-6.12 2.085-9.214 3.124-3.063 1.333-6.155 2.66-9.278 3.98-2.979 2.1-6.007 4.178-9.087 6.233-3.184 1.484-6.402 2.958-9.656 4.422-2.312 1.761-4.659 3.502-7.039 5.225 5.684-1.365 11.311-2.734 16.881-4.106 3.121.023 6.237.048 9.349.075 3.204-.753 6.39-1.507 9.557-2.261 3.215-2.316 6.367-4.663 9.458-7.04 3.084-.673 6.154-1.346 9.208-2.018 3.023-1.339 6.016-2.684 8.979-4.035 3-.923 5.979-1.847 8.939-2.773 3.075-.161 6.143-.321 9.204-.478 2.869-1.458 5.706-2.922 8.512-4.393 2.948-.745 5.88-1.489 8.795-2.232 2.433-2.831 4.796-5.698 7.086-8.599 2.623-1.559 5.214-3.123 7.772-4.693 2.998-.132 5.99-.259 8.974-.384 2.167-2.631 4.274-5.288 6.32-7.968 2.496-1.447 4.964-2.898 7.402-4.351 2.645-.924 5.271-1.847 7.879-2.769 2.573-.973 5.125-1.944 7.66-2.914 2.335-1.481 4.642-2.962 6.919-4.447 2.382-1.219 4.741-2.436 7.077-3.654 2.649-.198 5.292-.391 7.927-.581 1.919-2.557 3.781-5.129 5.586-7.716 2.809.529 5.617 1.059 8.424 1.59 2.36-.866 4.703-1.728 7.031-2.587 1.695-2.462 3.337-4.937 4.928-7.422 2.698.124 5.392.252 8.083.383 1.962-1.494 3.896-2.989 5.804-4.483 2.263-.805 4.511-1.606 6.743-2.402 1.414-2.32 2.782-4.647 4.103-6.983 2.322-.592 4.632-1.177 6.93-1.758 1.889-1.309 3.755-2.617 5.598-3.92.757-3.142 1.445-6.303 2.063-9.481-2.362.214-4.732.433-7.109.658-1.658 1.607-3.347 3.217-5.064 4.827z"/><path d="m364.435 210.039c-2.114.958-4.246 1.925-6.397 2.901-2.235.812-4.487 1.633-6.755 2.461-1.097 3.138-2.267 6.27-3.509 9.395-2.277.955-4.572 1.917-6.885 2.887-3.249-1.001-6.498-2.003-9.746-3.004-1.308 3.155-2.688 6.303-4.143 9.441-3.029-.409-6.06-.815-9.093-1.215-1.399 3.321-2.876 6.629-4.433 9.924-2.222 1.671-4.476 3.345-6.764 5.022-2.738.551-5.488 1.108-8.252 1.67-2.335 1.673-4.704 3.349-7.105 5.027-2.597 1.146-5.216 2.297-7.858 3.452-3.023.124-6.054.254-9.092.389-2.246 2.383-4.543 4.761-6.891 7.133-2.284 2.547-4.624 5.087-7.022 7.616-2.934.804-5.886 1.614-8.855 2.427-2.972.823-5.962 1.65-8.97 2.483-2.984.937-5.987 1.879-9.01 2.825-2.915 1.355-5.858 2.711-8.829 4.07-2.721 2.296-5.494 4.585-8.319 6.865-2.774 2.447-5.604 4.882-8.491 7.305-3.453-.057-6.911-.11-10.375-.16-3.057 1.849-6.154 3.693-9.293 5.531-2.674 3.993-5.462 7.932-8.364 11.816-3.413.945-6.847 1.893-10.304 2.843-3.42 1.233-6.868 2.465-10.344 3.697-3.313 2.246-6.681 4.478-10.105 6.692-3.635.774-7.29 1.551-10.964 2.33-3.418 2.648-6.906 5.267-10.463 7.859-3.716 1.225-7.462 2.447-11.239 3.667-3.714 1.833-7.475 3.654-11.282 5.462-3.786 1.975-7.623 3.934-11.513 5.876-2.426 1.023-4.869 2.042-7.329 3.056 2.264-.206 4.523-.412 6.779-.618 3.53.066 7.056.133 10.578.201 3.919-1.275 7.806-2.556 11.659-3.841 4.172-2.696 8.262-5.429 12.268-8.195 3.385.61 6.772 1.218 10.16 1.826 3.89-2.399 7.712-4.822 11.467-7.27 3.646-1.679 7.251-3.366 10.814-5.061 3.47-.405 6.929-.806 10.376-1.206 3.431.399 6.861.798 10.29 1.198 3.514-2.591 6.957-5.207 10.329-7.847 3.41-.227 6.81-.45 10.202-.67 3.33-1.833 6.616-3.674 9.858-5.522 3.165-2.678 6.26-5.378 9.286-8.099 3.201-1.125 6.377-2.249 9.529-3.371 3.179-.951 6.338-1.9 9.475-2.846 3.062-1.412 6.093-2.824 9.093-4.237 2.987-1.478 5.941-2.957 8.864-4.435 3.121-.592 6.227-1.178 9.32-1.761 2.902-1.39 5.774-2.779 8.618-4.166 3.295.301 6.586.604 9.875.912 2.734-1.718 5.431-3.438 8.091-5.158 2.444-2.393 4.833-4.795 7.167-7.206 3.02-.377 6.029-.749 9.027-1.116 2.565-1.588 5.099-3.177 7.599-4.763 2.665-1.155 5.305-2.306 7.923-3.452 2.383-1.73 4.73-3.46 7.042-5.188 1.784-2.949 3.499-5.91 5.145-8.884 2.525-1.034 5.03-2.062 7.514-3.083 2.393-1.218 4.763-2.431 7.108-3.638 2.122-1.656 4.211-3.309 6.267-4.958 2.198-1.379 4.368-2.752 6.513-4.119 2.715-.339 5.42-.668 8.115-.992 1.976-1.606 3.92-3.209 5.833-4.805 1.401-2.454 2.75-4.908 4.049-7.364 1.383-2.3 2.718-4.599 4.007-6.898 1.68-1.683 3.327-3.36 4.942-5.03 2.987.355 5.97.717 8.951 1.084 1.434-1.899 2.83-3.792 4.189-5.679.441-3.153.811-6.313 1.111-9.477 2.275-.508 4.538-1.007 6.789-1.497 1.098-3.617 2.087-7.228 2.968-10.831-3.515-.205-7.038-.394-10.57-.569-.565 2.979-1.201 5.961-1.906 8.944-2.151.468-4.312.944-6.484 1.428-2.71-.439-5.422-.873-8.136-1.303-1.198 2.234-2.442 4.474-3.732 6.719-2.664-.251-5.332-.496-8.003-.736-2.389.296-4.786.601-7.191.913-1.695 1.634-3.419 3.275-5.174 4.923z"/></g></svg>