<svg id="_x3C_Layer_x3E_" enable-background="new 0 0 500 500" viewBox="0 0 500 500" xmlns="http://www.w3.org/2000/svg"><g fill="rgb(0,0,0)"><path d="m359.232 354.672c-.991-2.812-1.974-5.62-2.952-8.424-1.096-2.756-2.186-5.511-3.269-8.263-1.745-2.484-3.488-4.969-5.232-7.454-1.847-2.436-3.694-4.871-5.541-7.307-.983-2.79-1.959-5.576-2.928-8.358-2.627-2.107-5.254-4.21-7.881-6.307.541-3.444 1.114-6.85 1.723-10.219-1.151-2.701-2.298-5.399-3.441-8.095-3.411-1.82-6.818-3.62-10.217-5.401-1.851-2.411-3.701-4.822-5.551-7.233.374-3.359.779-6.686 1.212-9.982-3.27-1.858-6.538-3.701-9.802-5.526-.286-3.071-.558-6.127-.812-9.169-3.269-1.843-6.535-3.67-9.796-5.479-1.31-2.639-2.614-5.277-3.916-7.914-1.197-2.687-2.391-5.371-3.579-8.054-3.984-1.507-7.956-2.978-11.915-4.412 1.242-3.841 2.539-7.618 3.889-11.329-3.808-1.701-7.608-3.374-11.398-5.018-1.27-2.754-2.537-5.506-3.8-8.257-1.595-2.607-3.189-5.214-4.78-7.822-2.285-2.343-4.569-4.686-6.854-7.027.504-3.4 1.04-6.766 1.605-10.097-3.439-1.811-6.875-3.603-10.306-5.374-1.722-2.39-3.445-4.78-5.166-7.169 1.944-3.589 3.95-7.096 6.017-10.518-3.652-1.847-7.298-3.672-10.938-5.473.602-3.082 1.232-6.132 1.888-9.15-.371-2.755-.73-5.5-1.079-8.235-1.323-2.484-2.643-4.967-3.961-7.45-3.699-1.771-7.392-3.516-11.078-5.236-.435-2.777-.858-5.545-1.272-8.303-2.582-2.081-5.164-4.156-7.746-6.227 2.032-3.59 4.127-7.095 6.282-10.511-4.606-1.545-9.196-3.035-13.767-4.474 1.169-3.315 2.377-6.58 3.624-9.792-3.156-1.939-6.31-3.864-9.461-5.774-4.112-3.557-8.224-7.104-12.338-10.64 1.619 4.754 3.255 9.52 4.909 14.297.326 2.935.665 5.881 1.016 8.839.548 2.916 1.106 5.84 1.674 8.774-.361 3.245-.697 6.518-1.007 9.818.622 2.968 1.255 5.944 1.898 8.927 2.709 2.19 5.417 4.385 8.127 6.585 2.14 2.399 4.278 4.797 6.417 7.197.067 3.208.153 6.435.258 9.68 2.622 2.174 5.245 4.354 7.868 6.538.392 3.164.799 6.342 1.222 9.531 2.795 2.059 5.59 4.125 8.388 6.198 2.29 2.298 4.579 4.599 6.867 6.901 2.791 2.083 5.583 4.173 8.374 6.27 1.038 2.847 2.082 5.697 3.131 8.551.856 2.559 1.717 5.122 2.584 7.688 1.21 2.411 2.422 4.825 3.638 7.238 3.478 1.506 6.965 3.035 10.459 4.588.801 2.575 1.607 5.154 2.42 7.736 1.935 2.16 3.868 4.322 5.802 6.484.776 2.585 1.558 5.175 2.347 7.768-2.524 3.83-4.962 7.771-7.31 11.82 3.394 1.744 6.796 3.505 10.202 5.287 2.41 2.183 4.82 4.368 7.23 6.558-.188 3.294-.351 6.613-.487 9.957.532 3.044 1.079 6.098 1.638 9.162 3.505 1.592 7.018 3.209 10.538 4.848 1.782 2.443 3.568 4.885 5.352 7.327-.603 3.587-1.167 7.213-1.692 10.877 3.424 1.575 6.854 3.172 10.293 4.791.82 2.92 1.65 5.846 2.489 8.779 1.963 2.122 3.925 4.245 5.887 6.368-.555 3.49-1.075 7.018-1.557 10.581.895 2.761 1.799 5.525 2.71 8.293 2.544 1.755 5.09 3.516 7.638 5.285.691 2.897 1.393 5.8 2.106 8.71 3.308 1.242 6.628 2.508 9.956 3.799 3.128 1.386 6.264 2.791 9.406 4.216 1.088 2.62 2.18 5.243 3.276 7.868 2.196 1.955 4.393 3.912 6.589 5.872-.263 3.481-.493 6.992-.692 10.533 3.394 1.258 6.798 2.545 10.213 3.858.427-3.069.882-6.111 1.365-9.124-.743-2.487-1.48-4.97-2.211-7.448-1.599-2.116-3.196-4.234-4.795-6.352z"/><path d="m233.661 419.162c-.876-3.616-1.73-7.222-2.56-10.82-1.716-1.805-3.434-3.609-5.152-5.412-1.602-1.986-3.206-3.971-4.808-5.958-1.517-2.159-3.033-4.318-4.548-6.477-1.886-1.31-3.77-2.616-5.653-3.919-1.505-2.152-3.009-4.305-4.512-6.459-1.895-1.24-3.788-2.476-5.679-3.709-.863-3.976-1.697-7.939-2.502-11.889-2.087-.85-4.169-1.691-6.245-2.524-2.092-.855-4.177-1.702-6.258-2.54-1.053-3.288-2.091-6.571-3.115-9.849-1.169-2.877-2.33-5.752-3.482-8.627-2.318-.564-4.624-1.116-6.92-1.652-.675-3.893-1.319-7.771-1.933-11.635-1.296-2.601-2.587-5.201-3.876-7.801-1.68-1.87-3.361-3.741-5.042-5.611-2.247-.785-4.486-1.559-6.717-2.322-1.397-2.391-2.792-4.782-4.185-7.173-.758-3.663-1.493-7.316-2.204-10.959-1.138-2.871-2.269-5.741-3.391-8.608-1.928-1.388-3.854-2.773-5.779-4.155-1.463-2.253-2.925-4.506-4.387-6.761-2.136-.949-4.269-1.889-6.397-2.821-1.409-2.369-2.818-4.738-4.224-7.107-1.533-2.128-3.065-4.256-4.598-6.385-1.424-2.365-2.846-4.732-4.266-7.098-1.691-1.846-3.382-3.692-5.073-5.538-2.414-.329-4.812-.642-7.198-.937-1.867-1.472-3.733-2.942-5.598-4.41-2.003.331-3.991.681-5.96 1.048 2.175 4.693 4.367 9.39 6.574 14.087.547 4.183 1.132 8.385 1.754 12.605 1.277 2.796 2.559 5.592 3.848 8.39 2.532-.184 5.088-.342 7.668-.472 1.183 2.935 2.375 5.87 3.575 8.807 1.722 1.71 3.444 3.421 5.166 5.132 1.393 2.492 2.789 4.985 4.188 7.477.838 3.923 1.704 7.857 2.598 11.803 1.793 1.501 3.586 3.005 5.38 4.51 1.3 2.867 2.607 5.735 3.921 8.603 2.666-1.098 5.382-2.15 8.147-3.156 1.832 1.384 3.665 2.771 5.498 4.16.849 3.972 1.726 7.956 2.634 11.951 2.498-.601 5.031-1.171 7.597-1.707 1.743 1.65 3.487 3.301 5.23 4.954 1.395 2.578 2.793 5.156 4.196 7.733 1.432 2.465 2.865 4.932 4.302 7.396 1.759 1.598 3.517 3.197 5.277 4.797 1.591 2.038 3.183 4.075 4.774 6.113.927 3.558 1.874 7.124 2.842 10.696 2.442.051 4.906.125 7.389.222.463 4.53.978 9.086 1.545 13.668 1.406 2.554 2.817 5.106 4.231 7.659 2.319.091 4.656.203 7.012.335.826 4.029 1.685 8.071 2.576 12.126 1.768 1.547 3.538 3.096 5.306 4.646 1.41 2.651 2.824 5.3 4.243 7.95 2.18.202 4.377.42 6.588.656 1.309 2.999 2.626 5.999 3.952 8.999 1.693 1.869 3.387 3.738 5.08 5.606 2.602-.997 5.254-1.951 7.954-2.859-1.075-3.407-2.135-6.809-3.177-10.204-1.868-1.528-3.737-3.053-5.606-4.575z"/><path d="m408.598 321.907c-.232-1.974-.458-3.942-.677-5.902-.95-1.828-1.897-3.655-2.844-5.483.222-1.944.454-3.875.695-5.793-1.912-1.735-3.822-3.469-5.734-5.2-1.57-1.755-3.141-3.508-4.713-5.262 1.241-2.055 2.505-4.074 3.793-6.056-1.208-1.792-2.417-3.583-3.625-5.375-.311-1.866-.617-3.727-.918-5.582-3.191-1.635-6.378-3.25-9.56-4.843-.071-1.9-.135-3.792-.191-5.676-1.731-1.736-3.462-3.471-5.194-5.204-.647-1.838-1.292-3.673-1.934-5.506.304-1.923.618-3.832.943-5.726-1.728-1.743-3.456-3.485-5.186-5.226-.628-1.856-1.255-3.709-1.879-5.561-.981-1.824-1.96-3.647-2.937-5.471-.952-1.826-1.902-3.651-2.851-5.476-2.492-1.707-4.985-3.407-7.477-5.097-.708-1.85-1.416-3.698-2.12-5.544-1.224-1.803-2.448-3.606-3.672-5.408-.77-1.843-1.538-3.684-2.305-5.523-.421-1.872-.84-3.738-1.253-5.601-2.185-1.729-4.369-3.454-6.553-5.174-.074-1.906-.142-3.805-.202-5.694-.921-1.828-1.84-3.656-2.757-5.483-2.481-1.708-4.964-3.407-7.444-5.099-2.205-1.71-4.411-3.414-6.617-5.114-.161-1.918-.315-3.829-.465-5.732-2.272-1.7-4.544-3.395-6.816-5.085-.495-1.887-.986-3.77-1.473-5.65-2.87-1.628-5.739-3.24-8.604-4.838-1.081-1.822-2.161-3.644-3.24-5.467-1.347-1.79-2.695-3.579-4.042-5.369-2.399-1.645-4.798-3.282-7.196-4.912.397-2.063.805-4.109 1.225-6.138-1.665-1.755-3.331-3.509-4.998-5.262-2.394-1.719-4.788-3.432-7.182-5.137.364 1.936.734 3.875 1.108 5.82.934 1.842 1.869 3.684 2.805 5.526.031 1.903.07 3.814.115 5.733 1.271 1.818 2.542 3.636 3.814 5.453 1.248 1.815 2.497 3.63 3.745 5.445.761 1.858 1.525 3.718 2.29 5.579 1.591 1.774 3.182 3.548 4.773 5.323-.817 2.026-1.617 4.076-2.4 6.15.94 1.854 1.882 3.708 2.824 5.564 1.475 1.779 2.949 3.558 4.422 5.338 1.324 1.798 2.648 3.594 3.971 5.392.358 1.938.72 3.88 1.087 5.827.362 1.952.73 3.909 1.101 5.871 1.178 1.823 2.356 3.647 3.537 5.469 2.318 1.616 4.637 3.238 6.956 4.866-.13 2.042-.249 4.094-.36 6.159.735 1.908 1.472 3.819 2.212 5.73 1.219 1.816 2.438 3.633 3.658 5.449 1.663 1.724 3.326 3.449 4.988 5.176 2.135 1.628 4.269 3.26 6.404 4.897-.327 2.112-.641 4.24-.942 6.383 2.436 1.55 4.873 3.109 7.312 4.675 2.02 1.646 4.039 3.296 6.058 4.949-.322 2.093-.631 4.2-.929 6.324 1.406 1.747 2.813 3.492 4.219 5.239 2.012 1.609 4.023 3.22 6.034 4.836.933 1.849 1.869 3.699 2.805 5.549.767 1.891 1.536 3.785 2.308 5.681 3.092 1.341 6.189 2.705 9.292 4.089 1.642 1.691 3.283 3.383 4.924 5.076 1.447 1.733 2.894 3.466 4.341 5.198.798 1.877 1.599 3.753 2.401 5.633 1.452 1.733 2.903 3.467 4.355 5.201 1.534 1.714 3.069 3.429 4.603 5.145 2.085 1.583 4.171 3.17 6.256 4.762-.2 2.124-.386 4.263-.562 6.415 2.161 1.58 4.32 3.16 6.478 4.747z"/><path d="m293.964 398.232c-1.004-3.172-1.996-6.34-2.977-9.501-.17-3.943-.302-7.861-.398-11.753-2.517-1.749-5.032-3.491-7.545-5.227-.255-3.813-.479-7.606-.67-11.376-.691-3.352-1.367-6.694-2.025-10.025-1.916-2.278-3.832-4.557-5.748-6.835-1.256-2.834-2.508-5.665-3.753-8.496-1.089-2.965-2.168-5.927-3.242-8.886-3.349-1.083-6.684-2.14-10.005-3.171-1.203-2.875-2.4-5.75-3.592-8.621.76-4.568 1.59-9.078 2.489-13.529-3.384-1.111-6.756-2.193-10.112-3.251.266-4.081.577-8.125.932-12.133-3.57-.974-7.122-1.916-10.657-2.826-1.837-2.309-3.675-4.619-5.511-6.929-.649-3.305-1.281-6.601-1.897-9.887-1.815-2.329-3.629-4.658-5.443-6.987-1.234-2.793-2.463-5.584-3.686-8.375-.08-3.711-.13-7.399-.151-11.064-2.582-1.751-5.162-3.494-7.74-5.231-2.78-1.573-5.554-3.137-8.326-4.69-.791-3.147-1.569-6.289-2.336-9.424-.777-3.133-1.541-6.261-2.293-9.381-.877-3.033-1.746-6.061-2.606-9.083-1.358-2.662-2.715-5.323-4.066-7.984-2.521-1.812-5.041-3.618-7.559-5.419-2.73-1.631-5.457-3.254-8.182-4.866.414-4.068.871-8.096 1.372-12.086-1.977-2.21-3.955-4.419-5.933-6.628-4.835-.091-9.62-.096-14.352-.019-.858-3.103-1.707-6.199-2.544-9.29-1.219-2.796-2.433-5.591-3.643-8.385-2.612-1.68-5.222-3.352-7.829-5.017-.591-3.334-1.166-6.658-1.726-9.971-3.25-1.17-6.49-2.318-9.721-3.444-1.242-2.808-2.48-5.614-3.713-8.419-2.147-2.044-4.294-4.085-6.442-6.126-2.403-1.816-4.806-3.628-7.208-5.435-1.209-1.368-2.419-2.735-3.628-4.102-.021 2.217-.031 4.442-.031 6.675-.59 4.011-1.135 8.06-1.634 12.149 1.438 2.686 2.877 5.374 4.322 8.061 3.435 1.168 6.882 2.361 10.341 3.577-1.25 4.59-2.426 9.249-3.526 13.976 2.945 1.46 5.896 2.933 8.852 4.419 1.936 2.266 3.87 4.533 5.805 6.799.248 3.604.52 7.225.815 10.864-.719 4.523-1.375 9.097-1.969 13.722 3.065 1.185 6.139 2.387 9.223 3.607.148 3.874.326 7.771.538 11.688 2.111 2.069 4.22 4.141 6.33 6.212 3.075 1.116 6.159 2.251 9.253 3.404 1.243 2.872 2.492 5.747 3.747 8.623 1.061 3.065 2.132 6.135 3.21 9.208 1.595 2.558 3.192 5.116 4.792 7.673 1.671 2.483 3.342 4.966 5.016 7.448.722 3.466 1.461 6.941 2.217 10.426 1.598 2.576 3.198 5.151 4.8 7.726-.126 4.488-.201 9.013-.223 13.574 1.962 2.178 3.923 4.357 5.883 6.537 2.611 1.377 5.226 2.763 7.846 4.16.653 3.718 1.327 7.449 2.026 11.193 1.841 2.312 3.684 4.623 5.526 6.934 1.444 2.815 2.893 5.63 4.346 8.446 1.982 2.13 3.964 4.26 5.946 6.391 3.074.701 6.165 1.428 9.272 2.18 1.343 2.914 2.692 5.827 4.045 8.742 1.53 2.697 3.063 5.394 4.598 8.091 1.929 2.187 3.857 4.375 5.785 6.562 1.694 2.493 3.389 4.984 5.086 7.476.819 3.67 1.659 7.349 2.519 11.038 1.919 2.205 3.837 4.409 5.756 6.613 2.615 1.201 5.239 2.413 7.867 3.638 2.498 1.385 5.001 2.78 7.507 4.182 1.996 2.083 3.992 4.165 5.988 6.248.333 4.362.709 8.751 1.129 13.165 2.194 1.795 4.387 3.593 6.582 5.394 3.179.317 6.383.669 9.612 1.055 1.1 3.348 2.212 6.702 3.336 10.061 3.908 1.634 7.833 3.3 11.774 4.994-.802-5.27-1.552-10.512-2.249-15.721-3.211-1.134-6.409-2.247-9.592-3.338z"/></g></svg>