<svg id="_x3C_Layer_x3E_" enable-background="new 0 0 500 500" viewBox="0 0 500 500" xmlns="http://www.w3.org/2000/svg"><g fill="rgb(0,0,0)"><path d="m460.052 283.766c-1.768-1.462-3.566-2.926-5.394-4.393-2.226-.759-4.467-1.523-6.726-2.289-2.235-1.586-4.507-3.174-6.816-4.765-2.359-1.497-4.753-2.995-7.183-4.496-2.685-.974-5.393-1.95-8.126-2.93-2.766-.892-5.554-1.788-8.365-2.687-2.512-1.585-5.061-3.171-7.648-4.758-3.109-.276-6.23-.556-9.363-.841-2.179-2.804-4.434-5.599-6.763-8.382-2.803-1.434-5.641-2.869-8.514-4.301-3.402.308-6.809.613-10.221.915-3.05-.894-6.124-1.789-9.22-2.686-2.648-2.63-5.367-5.249-8.157-7.854-3.418.187-6.842.371-10.273.552-2.962-2.094-5.979-4.181-9.051-6.258-3.45.179-6.906.356-10.369.53-3.236-1.303-6.505-2.604-9.808-3.901-3.298-1.38-6.632-2.756-10.002-4.128-3.538.708-7.078 1.414-10.62 2.118-3.266-3.246-6.634-6.463-10.103-9.648-3.662.483-7.329.964-11 1.443-3.64-1.368-7.318-2.731-11.034-4.087-3.713-1.116-7.457-2.23-11.234-3.337-3.795-.638-7.61-1.276-11.448-1.912-3.78-2.503-7.636-4.982-11.569-7.435-3.724.222-7.455.442-11.193.661-3.747-.88-7.52-1.757-11.319-2.629-3.714-3.12-7.528-6.2-11.442-9.233-3.878.296-7.763.591-11.655.884-3.947-2.196-7.96-4.365-12.04-6.508-4.064-1.571-8.175-3.127-12.333-4.665-4.099-1-8.229-1.992-12.392-2.974-3.812.375-7.63.748-11.453 1.121-4.317-1.491-8.682-2.964-13.094-4.418-4.024-.242-8.063-.481-12.117-.718-4.97-2.817-10.049-5.576-15.235-8.275-3.662.855-7.325 1.709-10.989 2.563-5.087-2.248-10.259-4.452-15.518-6.609-4.04.106-8.091.211-12.151.317-7.127-.418-14.303-.825-21.527-1.219 8.692 1.858 17.251 3.775 25.678 5.748 4.969 1.451 9.882 2.927 14.741 4.427 4.855 1.408 9.659 2.839 14.411 4.291 4.896 1.956 9.721 3.945 14.475 5.966 4.644 1.497 9.236 3.016 13.778 4.553 4.309.331 8.599.664 12.872.999 4.31.661 8.594 1.327 12.853 1.999 4.504 1.933 8.944 3.888 13.319 5.868 4.114.381 8.21.763 12.287 1.146 4.359 1.845 8.659 3.708 12.9 5.591 3.961.258 7.907.516 11.84.775 3.975.601 7.928 1.204 11.86 1.81 3.897.264 7.78.528 11.648.792 3.983 1.465 7.924 2.94 11.821 4.424 3.454 1.366 6.872 2.74 10.256 4.121 3.378 1.137 6.726 2.28 10.047 3.427 3.459-.4 6.915-.801 10.367-1.204 3.295 1.43 6.555 2.867 9.779 4.312 3.331.678 6.643 1.358 9.936 2.037 3.161 1.47 6.284 2.946 9.373 4.428 2.622 3.772 5.129 7.585 7.522 11.434 3.643-.192 7.279-.387 10.907-.585 3.433.516 6.849 1.031 10.248 1.544 2.936 2.438 5.806 4.89 8.61 7.354 2.952 1.957 5.854 3.92 8.707 5.89 3.51-.374 7.017-.751 10.517-1.132 3.099.977 6.174 1.953 9.224 2.927 2.488 2.883 4.897 5.78 7.227 8.689 3.402-.379 6.799-.761 10.191-1.147 2.674 1.765 5.305 3.531 7.893 5.299 2.768.658 5.52 1.314 8.256 1.966 1.993 2.826 3.914 5.661 5.762 8.504 2.319 1.619 4.602 3.238 6.848 4.855 2.832.117 5.655.231 8.471.341 2.142 1.812 4.242 3.623 6.301 5.432 3.069-.638 6.137-1.279 9.203-1.922 2.974-.477 5.946-.956 8.914-1.44 2.183 1.406 4.335 2.809 6.456 4.209 2.563.365 5.115.726 7.656 1.082 1.547 2.703 3.024 5.407 4.431 8.112 3.082-.751 6.164-1.504 9.245-2.261-1.067-2.48-2.189-4.956-3.365-7.429z"/><path d="m172.291 155.624c3.305 1.131 6.581 2.273 9.828 3.426 3.164.551 6.312 1.106 9.445 1.664 3.128.568 6.24 1.139 9.337 1.714 3.125.821 6.23 1.649 9.315 2.483 3.031.403 6.05.809 9.056 1.216 3.152 1.675 6.263 3.367 9.333 5.076 2.995.774 5.972 1.554 8.93 2.337 2.933.488 5.853.977 8.76 1.469 2.909.574 5.803 1.15 8.684 1.728 2.916 1.128 5.807 2.264 8.672 3.406 2.872 1.148 5.719 2.303 8.541 3.465 2.81.683 5.604 1.37 8.383 2.059 2.76.001 5.515 0 8.264-.002 2.772 1.475 5.511 2.961 8.218 4.454 2.715.974 5.409 1.952 8.083 2.934 2.681.681 5.348 1.363 8 2.047 2.659.401 5.307.802 7.945 1.202 2.647.096 5.287.191 7.922.285 2.561 1.675 5.086 3.359 7.575 5.052 2.615-.11 5.226-.221 7.832-.333 2.579.159 5.152.317 7.718.474 2.417 1.686 4.798 3.38 7.144 5.082 2.463.549 4.914 1.099 7.354 1.649 2.481.134 4.957.267 7.426.398 2.386.87 4.754 1.741 7.106 2.612 2.341.993 4.663 1.985 6.966 2.981 2.523-.644 5.045-1.289 7.566-1.934 2.376.371 4.742.741 7.101 1.11 2.337.504 4.664 1.008 6.98 1.511 2.251.967 4.484 1.934 6.7 2.902 2.292.501 4.573 1.001 6.844 1.5 2.281.438 4.552.875 6.814 1.311 2.325.027 4.646.052 6.962.075 2.046 1.72 4.057 3.444 6.032 5.173 2.32-.025 4.637-.051 6.949-.08-1.955-1.365-3.935-2.728-5.941-4.09-2.132-.844-4.28-1.688-6.444-2.532-1.887-1.599-3.803-3.194-5.75-4.784-2.415-.221-4.838-.443-7.268-.666-2.349-.434-4.708-.87-7.078-1.308-1.836-2.243-3.719-4.475-5.65-6.697-2.353-.661-4.721-1.322-7.101-1.982-2.245-1.224-4.514-2.443-6.805-3.659-2.67.579-5.341 1.157-8.013 1.733-2.271-1.374-4.567-2.743-6.891-4.106-2.506-.327-5.023-.655-7.547-.984-2.417-1-4.854-1.998-7.31-2.993-2.382-1.579-4.797-3.149-7.244-4.712-2.581-.327-5.17-.653-7.769-.979-2.574-1.008-5.168-2.012-7.784-3.013-2.628-.788-5.273-1.574-7.936-2.358-2.662-.8-5.341-1.597-8.036-2.392-2.705.114-5.414.227-8.127.339-2.712-.939-5.443-1.874-8.194-2.805-2.744-.628-5.503-1.255-8.276-1.879-2.787-.887-5.592-1.771-8.418-2.651-2.845-1.079-5.713-2.152-8.605-3.219-2.786-.065-5.578-.129-8.376-.195-2.948-1.262-5.926-2.516-8.931-3.76-2.937-.768-5.892-1.533-8.864-2.293-2.806.105-5.616.209-8.431.313-2.836-.045-5.679-.089-8.527-.134-3.112-1.182-6.251-2.354-9.419-3.517-2.858-.004-5.722-.007-8.592-.011-3.154-.978-6.331-1.948-9.532-2.911-2.774.326-5.551.651-8.33.975-3.111-.646-6.239-1.287-9.383-1.924-3.093-.493-6.2-.983-9.32-1.469-2.878.08-5.762.16-8.651.239-3.569-1.432-7.177-2.845-10.824-4.242-3.115-.305-6.242-.609-9.378-.91-3.063.038-6.132.077-9.207.116 3.496.97 6.965 1.949 10.408 2.939 3.268.686 6.523 1.378 9.759 2.075z"/><path d="m409.683 339.346c-1.472-1.87-2.985-3.744-4.539-5.623-.949-2.793-1.965-5.586-3.049-8.379-2.744-.198-5.497-.402-8.262-.611-1.238-2.669-2.541-5.34-3.907-8.007-1.681-2.153-3.411-4.307-5.189-6.462-2.496-.859-5.013-1.723-7.549-2.592-2.174-1.546-4.383-3.096-6.626-4.646-2.163-1.714-4.365-3.429-6.605-5.146-3.319.58-6.641 1.156-9.966 1.729-2.309-1.61-4.654-3.222-7.035-4.834-1.525-3.616-3.149-7.216-4.873-10.8-3.354.551-6.711 1.099-10.071 1.643-1.988-3.051-4.055-6.092-6.202-9.119-3.432.701-6.866 1.399-10.302 2.095-2.874-.958-5.771-1.917-8.69-2.877-2.559-2.121-5.169-4.237-7.83-6.346-2.983-.976-5.989-1.954-9.019-2.932-2.885-1.523-5.806-3.044-8.762-4.562-2.721-2.591-5.509-5.169-8.364-7.734-3.3-.27-6.611-.541-9.935-.815-3.349-.088-6.707-.177-10.075-.269-3.079-1.905-6.205-3.803-9.378-5.692-3.18-1.885-6.408-3.762-9.683-5.63-3.292-1.764-6.628-3.519-10.009-5.265-3.412-1.326-6.857-2.646-10.336-3.961-3.506-.335-7.027-.671-10.56-1.007-3.525-.152-7.061-.303-10.607-.457-3.586-2.834-7.258-5.64-11.013-8.417-3.645-.773-7.313-1.544-11.003-2.312-3.458 1.558-6.917 3.118-10.375 4.681-3.759-1.725-7.565-3.439-11.418-5.139-3.823-1.391-7.684-2.773-11.583-4.144-3.696-.228-7.404-.457-11.125-.685-4.066-1.891-8.186-3.764-12.363-5.619-3.633.29-7.271.579-10.915.867-4.086-1.33-8.212-2.649-12.377-3.956-3.936-.58-7.892-1.156-11.868-1.728-3.897-.365-7.811-.729-11.74-1.09-2.523-.447-5.056-.894-7.598-1.338 2.652 1.284 5.28 2.58 7.883 3.885 4.225 2.513 8.371 5.06 12.438 7.643 4.092 1.202 8.148 2.414 12.17 3.636 4.026-.263 8.044-.527 12.055-.793 3.94 3.174 7.777 6.394 11.513 9.659 3.9.069 7.789.139 11.666.207 3.813.859 7.602 1.721 11.366 2.588 3.681 2.221 7.301 4.461 10.859 6.722 3.508 3.131 6.923 6.297 10.245 9.495 3.699-.116 7.391-.236 11.076-.357 3.372 2.508 6.676 5.037 9.913 7.583 3.493.75 6.966 1.501 10.419 2.253 3.579-.182 7.152-.366 10.718-.553 3.286 1.552 6.534 3.109 9.744 4.671 3.181 1.753 6.32 3.513 9.415 5.279 3.198 1.25 6.366 2.503 9.504 3.757 3.153 1.18 6.278 2.362 9.375 3.544 2.877 2.173 5.701 4.354 8.472 6.542 3 1.282 5.97 2.565 8.911 3.849 2.44 3.191 4.793 6.398 7.06 9.623 2.965.903 5.908 1.805 8.83 2.705 3.153.117 6.297.231 9.432.342 2.405 2.424 4.752 4.854 7.04 7.289 2.768 1.029 5.513 2.056 8.235 3.08 2.546 1.52 5.059 3.041 7.539 4.559 2.731.844 5.442 1.685 8.134 2.522 3.229-.573 6.456-1.15 9.68-1.73 2.364 1.616 4.693 3.23 6.985 4.843 2.386 1.391 4.742 2.779 7.067 4.164 2.544.872 5.067 1.74 7.572 2.604 2.369 1.172 4.712 2.34 7.03 3.504 1.789 2.351 3.522 4.701 5.2 7.049 2.388.869 4.756 1.733 7.105 2.592 2.829-.139 5.653-.282 8.471-.43 2.725.019 5.442.035 8.152.045 2.356.709 4.695 1.413 7.017 2.11 1.145 3.032 2.211 6.062 3.197 9.09 2.412.405 4.811.803 7.198 1.196 3.187-1.092 6.375-2.185 9.561-3.282 1.52 1.958 2.996 3.91 4.426 5.856 4.01-.495 8.012-1 12.007-1.515-1.3-3.452-2.714-6.916-4.246-10.386-3.207.582-6.419 1.164-9.633 1.739z"/></g></svg>