<svg id="_x3C_Layer_x3E_" enable-background="new 0 0 500 500" viewBox="0 0 500 500" xmlns="http://www.w3.org/2000/svg"><g fill="rgb(0,0,0)"><path d="m130.984 315.496c1.67-2.213 3.346-4.432 5.027-6.656 2.684-.464 5.394-.972 8.133-1.524 1.448-2.657 2.899-5.315 4.351-7.975 2.653-.822 5.331-1.683 8.031-2.582 1.344-2.818 2.69-5.636 4.038-8.456 1.631-2.413 3.265-4.828 4.904-7.249 1.355-2.819 2.712-5.639 4.07-8.461 2.361-1.442 4.736-2.907 7.127-4.396 2.159-1.262 4.331-2.543 6.514-3.843 1.977-1.563 3.964-3.139 5.959-4.729.729-3.319 1.458-6.64 2.187-9.961 2.237-1.28 4.485-2.58 6.746-3.902 1.634-2.164 3.272-4.333 4.914-6.507 2.288-1.313 4.588-2.648 6.901-4.006 4.19 1.072 8.44 2.005 12.746 2.8 1.037-3.357 2.074-6.713 3.11-10.069 1.627-2.651 3.255-5.305 4.886-7.963 3.26-.866 6.545-1.789 9.855-2.772 2.881-1.434 5.78-2.905 8.695-4.413.887-3.418 1.774-6.837 2.662-10.256 2.061-2.298 4.127-4.607 6.199-6.927 3.745-.823 7.52-1.725 11.325-2.708.896-3.355 1.792-6.71 2.688-10.066 2.803-1.795 5.619-3.621 8.448-5.479 1.754-2.413 3.51-4.833 5.271-7.257 3.737-1.031 7.501-2.139 11.289-3.324 2.672-1.913 5.355-3.854 8.047-5.823 1.306-2.787 2.612-5.573 3.919-8.361 2.891-1.879 5.794-3.792 8.708-5.74.613-3.146 1.227-6.293 1.839-9.442.76-3.044 1.52-6.088 2.28-9.133 2.555-2.113 5.119-4.25 7.69-6.409 1.578-2.627 3.157-5.257 4.738-7.89 3.865-1.638 7.751-3.35 11.659-5.137.564-3.174 1.128-6.349 1.693-9.526-3.498 1.397-6.979 2.732-10.443 4.004-2.545 1.866-5.082 3.706-7.609 5.523-1.889 2.251-3.774 4.494-5.656 6.729-2.807 2.148-5.605 4.267-8.391 6.358-2.702 2.154-5.394 4.282-8.077 6.384-2.208 2.46-4.411 4.909-6.608 7.345-2.115 2.49-4.225 4.97-6.33 7.439-2.717 1.982-5.422 3.936-8.116 5.863-1.526 2.884-3.05 5.766-4.573 8.647-3.765 1.032-7.502 1.986-11.21 2.865-2.521 1.954-5.031 3.887-7.53 5.797-.96 3.315-1.921 6.63-2.881 9.944-2.01 2.344-4.015 4.679-6.014 7.005-3.529.922-7.031 1.777-10.503 2.564-1.03 3.209-2.059 6.419-3.089 9.628-3.021 1.255-6.022 2.467-9.003 3.635-1.015 3.198-2.029 6.396-3.044 9.594-2.3 1.875-4.591 3.732-6.87 5.571-2.354 1.769-4.698 3.517-7.029 5.247-.528 3.688-1.056 7.372-1.583 11.052-3.96.031-7.874-.04-11.737-.214-.746 3.593-1.492 7.184-2.238 10.774-2.332 1.753-4.652 3.486-6.961 5.199-2.104 1.961-4.198 3.908-6.284 5.842-1.699 2.463-3.393 4.921-5.084 7.375-3.219.292-6.403.52-9.551.683-.93 3.304-1.859 6.608-2.788 9.912-1.815 1.942-3.623 3.875-5.425 5.8-3.56-1.053-7.064-2.21-10.511-3.47-.885 3.474-1.77 6.948-2.656 10.419-2.802-.058-5.573-.169-8.311-.336-2.309.702-4.599 1.376-6.869 2.021-1.863 1.476-3.716 2.939-5.559 4.39-.78 3.491-1.56 6.982-2.339 10.469-2.243.689-4.466 1.35-6.669 1.983-1.256 2.522-2.51 5.042-3.761 7.562-3.276-1.526-6.486-3.155-9.629-4.885-.406 4.292-.809 8.576-1.211 12.851-2.831-.848-5.613-1.767-8.346-2.756-.985 2.993-1.969 5.987-2.953 8.98-2.109 3.953-4.212 7.903-6.309 11.848 3.38-1.664 6.808-3.387 10.285-5.169 2.237-.458 4.498-.947 6.782-1.468 2.222-.698 4.465-1.425 6.728-2.18 2.648.072 5.33.091 8.046.06 2.316-.851 4.652-1.731 7.007-2.64 1.412-2.696 2.832-5.398 4.253-8.102z"/><path d="m411.016 175.325c-3.121 2.791-6.237 5.541-9.349 8.249-1.598 2.734-3.196 5.464-4.792 8.19-3.261 2.59-6.517 5.13-9.766 7.623-1.804 2.647-3.606 5.288-5.406 7.922-1.943 2.59-3.882 5.17-5.82 7.741-2.075 2.551-4.146 5.09-6.215 7.617-1.388 2.581-2.775 5.159-4.161 7.735-2.056 2.5-4.111 4.988-6.161 7.465-1.33 2.552-2.659 5.103-3.988 7.652-3.488 2.44-6.966 4.822-10.434 7.149-1.007 2.58-2.013 5.16-3.019 7.74-1.027 2.605-2.054 5.211-3.081 7.816-2.9 2.293-5.792 4.55-8.677 6.773-2.572 2.248-5.138 4.472-7.698 6.67-.799 2.726-1.598 5.451-2.398 8.177-3.31 1.961-6.607 3.868-9.893 5.722-2.335 2.216-4.665 4.414-6.989 6.593-1.775 2.392-3.547 4.778-5.317 7.157-.956 2.688-1.912 5.377-2.867 8.065-2.151 2.206-4.297 4.398-6.439 6.575-3.078 1.81-6.145 3.574-9.2 5.294-2.486 1.989-4.966 3.954-7.437 5.896-1.376 2.448-2.75 4.893-4.123 7.337-2.011 2.146-4.018 4.28-6.02 6.403-1.049 2.563-2.096 5.127-3.144 7.689-2.08 2.083-4.156 4.152-6.226 6.208-1.899 2.146-3.793 4.282-5.684 6.409-2.061 2.055-4.117 4.096-6.167 6.126-1.683 2.228-3.363 4.451-5.039 6.667-.606 2.739-1.212 5.479-1.819 8.216-1.425 2.355-2.847 4.708-4.268 7.058-.079 2.217-.159 4.43-.238 6.641 3.904-3.21 7.83-6.476 11.775-9.797 3.247-1.314 6.511-2.684 9.789-4.111 2.35-1.965 4.707-3.951 7.069-5.957.396-2.972.791-5.946 1.186-8.924 2.46-1.925 4.928-3.874 7.403-5.847 1.643-2.346 3.29-4.699 4.938-7.055 2.183-2.132 4.372-4.279 6.566-6.442 3.182-1.809 6.377-3.664 9.582-5.57 1.531-2.454 3.062-4.91 4.595-7.37 2.48-2.183 4.966-4.388 7.457-6.616-.272-2.92-.544-5.854-.817-8.8 1.436-2.467 2.873-4.936 4.312-7.409 3.312-2.019 6.635-4.091 9.97-6.215.02-2.758.039-5.523.058-8.295 1.635-2.455 3.272-4.917 4.911-7.382 2.329-2.344 4.664-4.705 7.002-7.085 2.254-2.379 4.511-4.774 6.773-7.185 1.614-2.507 3.23-5.019 4.846-7.535 1.947-2.468 3.896-4.944 5.848-7.431 3.088-2.242 6.183-4.528 9.286-6.857.498-2.823.995-5.649 1.493-8.476 3.847-2.143 7.707-4.366 11.577-6.668 2.365-2.54 4.734-5.098 7.106-7.675.528-2.716 1.055-5.433 1.582-8.152 3.511-2.493 7.03-5.046 10.557-7.66 1.625-2.646 3.25-5.296 4.877-7.951 2.474-2.686 4.952-5.394 7.432-8.123.594-2.596 1.187-5.193 1.779-7.791 2.767-2.768 5.539-5.566 8.314-8.392 1.89-2.748 3.781-5.503 5.674-8.267-.366-2.497-.734-5.011-1.105-7.537z"/><path d="m123.053 238.554c1.644-.194 3.302-.405 4.974-.635 1.24-1.293 2.484-2.591 3.733-3.893 1.253-1.281 2.511-2.567 3.771-3.857 1.441-.874 2.889-1.755 4.344-2.646 1.135-1.592 2.273-3.186 3.414-4.783 2.088.435 4.199.834 6.333 1.198 1.426-1.072 2.857-2.151 4.295-3.239 1.209-1.525 2.422-3.054 3.637-4.586 1.277-1.408 2.558-2.821 3.843-4.237 1.715-.631 3.44-1.277 5.174-1.939 1.742-.658 3.493-1.331 5.254-2.02 1.381-1.33 2.766-2.665 4.155-4.006.834-2.235 1.669-4.472 2.503-6.707 2.027-.318 4.068-.662 6.124-1.029 1.633-1.02 3.274-2.051 4.921-3.093 1.4-1.407 2.804-2.82 4.212-4.238 1.172-1.752 2.348-3.505 3.524-5.261.921-2.108 1.843-4.217 2.764-6.325 2.244-.279 4.506-.588 6.783-.928.754-2.337 1.507-4.674 2.261-7.012.982-2.032 1.963-4.063 2.946-6.095 2.277-.337 4.57-.705 6.878-1.104 1.316-1.602 2.634-3.208 3.956-4.818.96-2.031 1.921-4.063 2.883-6.095 1.605-1.285 3.214-2.578 4.83-3.881 1.722-1.188 3.45-2.387 5.184-3.596.282-2.766.564-5.534.847-8.306 1.181-1.788 2.364-3.577 3.548-5.369 1.305-1.662 2.611-3.328 3.921-4.996 1.728-1.245 3.461-2.5 5.201-3.766 1.318-1.685 2.637-3.373 3.959-5.065 1.266-1.745 2.535-3.492 3.805-5.242.891-2.093 1.784-4.186 2.677-6.279 2.471-.684 4.956-1.399 7.457-2.147.864-2.153 1.728-4.305 2.592-6.459-2.142.973-4.273 1.925-6.395 2.857-1.653 1.39-3.3 2.772-4.943 4.145-2.283.592-4.554 1.156-6.811 1.693-1.101 2.003-2.201 4.005-3.3 6.006-1.272 1.764-2.543 3.525-3.812 5.284-2.796-.173-5.568-.4-8.315-.678-1.444 1.482-2.884 2.957-4.321 4.428-1.907.834-3.804 1.651-5.692 2.452-.391 2.878-.783 5.754-1.173 8.628-2.018.639-4.023 1.258-6.017 1.856-1.134 1.817-2.267 3.633-3.398 5.447-1.687 1.019-3.367 2.027-5.04 3.023-2.155.297-4.295.566-6.419.808-1.113 1.788-2.226 3.575-3.337 5.36-1.677.958-3.348 1.905-5.01 2.841-1.49 1.208-2.974 2.408-4.454 3.602-1.493 1.173-2.979 2.338-4.461 3.496-.748 2.36-1.496 4.72-2.244 7.08-1.594.969-3.182 1.926-4.762 2.874-1.338 1.358-2.671 2.71-4.001 4.058-1.54.987-3.073 1.966-4.6 2.934-1.686.694-3.362 1.373-5.029 2.038-.875 2.099-1.749 4.199-2.622 6.297-1.821.385-3.629.75-5.423 1.096-1.423 1.053-2.839 2.099-4.25 3.136-.734 2.334-1.467 4.669-2.2 7.003-.847 2.104-1.694 4.209-2.54 6.313-1.74.403-3.467.788-5.182 1.155-.811 2.154-1.621 4.307-2.431 6.462-1.572.655-3.135 1.297-4.688 1.926-.549 2.658-1.098 5.314-1.647 7.971-1.308 1.135-2.611 2.265-3.908 3.389-1.186 1.355-2.368 2.706-3.548 4.053-.734 2.254-1.469 4.508-2.204 6.762-1.924-.161-3.829-.35-5.712-.566-1.037 1.607-2.072 3.214-3.104 4.818-.797 2.25-1.593 4.499-2.389 6.749 1.548-.456 3.108-.925 4.678-1.409 1.328-.969 2.662-1.948 4.001-2.933z"/><path d="m237.912 313.956c3.003-1.615 6.023-3.271 9.057-4.968 2.252-2.263 4.511-4.541 6.775-6.834 3.924-1.169 7.874-2.423 11.851-3.764 1.954-2.58 3.91-5.168 5.871-7.764 1.27-2.982 2.54-5.964 3.811-8.948 3.312-1.83 6.64-3.711 9.984-5.643 2.096-2.568 4.197-5.147 6.302-7.736 2.547-2.377 5.103-4.775 7.665-7.195 1.958-2.688 3.919-5.383 5.884-8.086.69-3.228 1.38-6.457 2.07-9.687 2.675-2.389 5.356-4.803 8.046-7.242 2.49-2.519 4.985-5.057 7.487-7.614 2.032-2.721 4.069-5.449 6.107-8.188 2.323-2.646 4.651-5.307 6.983-7.982 3.434-2.365 6.881-4.78 10.34-7.248 2.083-2.803 4.168-5.616 6.258-8.438 1.151-3.014 2.301-6.029 3.452-9.043 1.304-2.971 2.61-5.942 3.914-8.914 1.967-2.838 3.937-5.684 5.909-8.536 4.214-2.494 8.445-5.074 12.691-7.742 1.721-2.944 3.443-5.892 5.166-8.844.274-3.058.546-6.121.817-9.189 3.263-2.798 6.535-5.638 9.815-8.518 1.512-4.391 3.024-8.782 4.535-13.172-5.243 3.754-10.466 7.384-15.665 10.891-.927 3.37-1.855 6.74-2.783 10.109-3.101 2.603-6.195 5.167-9.28 7.695-3.906 2.237-7.798 4.398-11.674 6.485-1.559 3.059-3.116 6.116-4.672 9.17-3.752 2.134-7.489 4.199-11.21 6.197-3.266 2.225-6.521 4.405-9.764 6.54-2.088 2.715-4.172 5.42-6.252 8.117-2.683 2.382-5.358 4.738-8.024 7.071-2.812 2.257-5.615 4.484-8.408 6.682-.751 3.357-1.502 6.712-2.254 10.066-2.685 2.263-5.362 4.501-8.029 6.713-4.448 1.181-8.863 2.247-13.246 3.2-.734 3.366-1.469 6.731-2.204 10.094-3.906 1.31-7.788 2.538-11.643 3.683-.579 3.473-1.158 6.944-1.737 10.411-2.028 2.452-4.051 4.893-6.07 7.325-3.036 1.709-6.057 3.377-9.062 5.004-2.017 2.383-4.029 4.755-6.036 7.119-2.481 1.989-4.953 3.956-7.416 5.903-3.399 1.198-6.776 2.336-10.128 3.415-1.365 2.813-2.728 5.625-4.091 8.437-1.198 2.946-2.396 5.893-3.593 8.84-2.766 1.569-5.517 3.105-8.254 4.608-2.735 1.512-5.455 2.991-8.16 4.437-2.617 1.539-5.221 3.05-7.811 4.532-2.231 1.853-4.452 3.69-6.664 5.51-1.373 2.7-2.744 5.399-4.114 8.096-1.208 2.857-2.417 5.713-3.624 8.569-3.504.437-6.974.798-10.407 1.085-1.73 2.24-3.455 4.474-5.176 6.703.268 4.504.542 8.985.82 13.444-2.537 1.347-5.06 2.666-7.567 3.956-2.245 1.603-4.479 3.187-6.701 4.752-1.244 2.723-2.486 5.446-3.727 8.169-2.671 1.037-5.322 2.038-7.953 3.003-.791 3.246-1.584 6.492-2.375 9.736-2.186 1.541-4.359 3.064-6.522 4.568-1.536 2.298-3.069 4.593-4.598 6.884-1.348 2.516-2.695 5.029-4.041 7.541-1.028 1.309-2.055 2.616-3.08 3.921 1.691-.182 3.391-.381 5.104-.599 3.079.186 6.195.303 9.346.352 2.076-1.709 4.16-3.433 6.255-5.172.918-3.52 1.835-7.041 2.753-10.562 3.635.634 7.32 1.168 11.051 1.599 1.174-3.105 2.348-6.209 3.523-9.313 1.805-2.224 3.614-4.454 5.428-6.691 2.911-.807 5.846-1.661 8.803-2.563 3.675-.058 7.39-.207 11.142-.448 1.018-3.246 2.035-6.493 3.052-9.739 3.193-.877 6.411-1.811 9.652-2.802 1.743-2.494 3.49-4.994 5.239-7.499.962-3.249 1.925-6.498 2.887-9.747 2.422-1.838 4.854-3.697 7.296-5.577 2.604-1.738 5.221-3.502 7.848-5.294 2.19-2.169 4.386-4.351 6.589-6.548 2.139-2.249 4.285-4.51 6.437-6.783z"/></g></svg>